PathFileType	4	(X/Y/Z)	\\Move.snu.ac.kr\motion\Animal\091204_091205_Bird\091205_bird\Project 2\Capture day 2\Session 1\pigeon_029.trc
DataRate	CameraRate	NumFrames	NumMarkers	Units	OrigDataRate	OrigDataStartFrame	OrigNumFrames
240.0	240.0	22	14	mm	240.0	139	3339
Frame#	Time	14MarkersBird:Head			14MarkersBird:C_back			14MarkersBird:Spine			14MarkersBird:L-shoulder			14MarkersBird:L-elbow			14MarkersBird:L-wrist			14MarkersBird:L-hand			14MarkersBird:R-shoulder			14MarkersBird:R-elbow			14MarkersBird:R-Wrist			14MarkersBird:R-hand			14MarkersBird:C_Tail			14MarkersBird:L-Tale			14MarkersBird:R-Tale			
		X1	Y1	Z1	X2	Y2	Z2	X3	Y3	Z3	X4	Y4	Z4	X5	Y5	Z5	X6	Y6	Z6	X7	Y7	Z7	X8	Y8	Z8	X9	Y9	Z9	X10	Y10	Z10	X11	Y11	Z11	X12	Y12	Z12	X13	Y13	Z13	X14	Y14	Z14	

2574	10.721	-725.62805	1829.83167	-1465.09436	-660.49487	1825.88049	-1472.17224	-607.30212	1811.65308	-1477.54639	-685.29291	1826.45374	-1447.15332	-656.92932	1845.01343	-1460.98987	-662.58582	1882.07825	-1433.73633	-643.30762	1905.67285	-1442.65881	-690.33197	1823.91003	-1489.80249	-664.06207	1848.57935	-1487.18713	-678.57617	1881.10718	-1510.16797	-656.13922	1914.28992	-1522.09387	-506.95029	1737.68848	-1470.67896	-563.20062	1793.96960	-1386.92383	-575.14801	1764.75024	-1576.03577	
2575	10.725	-734.89807	1827.62610	-1464.86755	-669.83679	1822.90540	-1471.19067	-616.82269	1808.48083	-1476.65076	-694.50055	1824.10242	-1446.82251	-666.86401	1842.66895	-1457.17749	-670.71973	1876.82068	-1426.29004	-653.15564	1901.99292	-1432.05957	-699.88837	1820.89575	-1490.04651	-674.50458	1845.76538	-1490.63379	-689.45172	1875.63867	-1515.59167	-670.97925	1909.46130	-1530.27612	-514.93958	1737.10168	-1469.96631	-573.24744	1791.90491	-1385.83691	-584.66254	1763.33008	-1575.41931	
2576	10.729	-744.18927	1825.40417	-1464.52429	-679.28503	1820.01819	-1470.15613	-626.30676	1805.51624	-1475.80811	-703.73077	1821.71289	-1446.33594	-676.79236	1839.71155	-1452.28491	-678.82562	1869.31689	-1417.06494	-662.43091	1895.31177	-1417.38269	-709.67993	1817.70667	-1490.26501	-684.81738	1842.14465	-1494.44250	-700.79144	1868.17627	-1522.46204	-686.52985	1900.45837	-1541.98193	-523.51068	1736.15149	-1468.89331	-583.40649	1789.46655	-1384.71899	-594.27496	1761.34119	-1574.66956	
2577	10.733	-753.56012	1823.24194	-1464.00500	-688.87134	1817.26172	-1469.06665	-635.78119	1802.83093	-1475.01208	-713.09906	1819.20068	-1445.51929	-686.54089	1835.97034	-1446.37036	-687.70203	1859.47876	-1407.03601	-672.24341	1884.95679	-1400.67383	-719.73608	1814.33862	-1490.41089	-695.64069	1837.59009	-1498.27185	-712.96179	1858.84253	-1529.59619	-703.25323	1887.34448	-1554.94019	-532.63037	1734.78601	-1467.51392	-593.71570	1786.49011	-1383.50769	-603.83966	1758.76001	-1573.76941	
2578	10.738	-763.04144	1821.14795	-1463.32422	-698.62677	1814.67773	-1467.92114	-645.27283	1800.49622	-1474.25562	-722.63190	1816.50732	-1444.41003	-696.20172	1831.29871	-1439.76331	-698.26874	1847.50208	-1397.34351	-683.93463	1870.85217	-1384.23218	-730.02277	1810.84277	-1490.37659	-707.37354	1832.17346	-1501.81421	-726.37628	1847.79504	-1535.77869	-721.62305	1870.63611	-1566.76062	-542.16235	1733.10620	-1465.98840	-604.15631	1783.03162	-1382.24390	-613.23584	1755.72766	-1572.70850	
2579	10.742	-772.64655	1819.06287	-1462.54236	-708.56116	1812.29187	-1466.71448	-654.80872	1798.58411	-1473.53186	-732.36145	1813.54004	-1443.06665	-706.20801	1825.63953	-1432.99133	-711.11310	1833.83215	-1389.08508	-698.43054	1853.56445	-1369.97083	-740.44458	1807.37988	-1490.02527	-719.73560	1826.36987	-1504.82251	-741.24628	1835.22742	-1540.04968	-741.51727	1851.45105	-1576.29419	-551.94519	1731.29541	-1464.54883	-614.63928	1779.33313	-1381.05090	-622.41724	1752.57153	-1571.51306	
2580	10.746	-782.37970	1816.90088	-1461.69763	-718.53326	1810.17444	-1465.38062	-664.41534	1797.16492	-1472.83411	-742.27679	1810.32141	-1441.56946	-716.96936	1819.08667	-1426.60400	-726.21149	1819.09705	-1383.16663	-715.98608	1833.98291	-1359.26123	-750.86871	1804.17651	-1489.25684	-732.08185	1820.66211	-1507.18823	-757.34857	1821.51318	-1541.67822	-762.48352	1830.72522	-1582.98035	-561.86993	1729.50940	-1463.43591	-625.00116	1775.66174	-1380.06897	-631.42059	1749.72559	-1570.25342	
2581	10.750	-792.23004	1814.59692	-1460.76758	-728.31738	1808.42163	-1463.81958	-674.11017	1796.28650	-1472.15442	-752.34381	1807.02161	-1439.95618	-728.56067	1811.89478	-1421.06873	-742.97778	1804.08752	-1380.18848	-736.20367	1813.11365	-1353.09570	-761.19232	1801.38940	-1488.02661	-745.20453	1813.82092	-1508.45313	-774.03857	1807.26929	-1540.14612	-784.19727	1807.96570	-1581.32593	-571.91357	1727.80640	-1462.84485	-635.01208	1772.17993	-1379.41211	-640.33392	1747.61182	-1569.04553	
2582	10.754	-802.18549	1812.10974	-1459.69995	-738.11023	1806.72644	-1462.20947	-683.89752	1795.91675	-1471.40784	-762.51233	1803.86902	-1438.26672	-740.68237	1804.46899	-1416.71143	-760.51416	1789.77942	-1380.38416	-758.09735	1792.13379	-1352.16248	-771.40045	1798.99194	-1486.38611	-759.24500	1806.07239	-1508.18982	-790.46338	1793.31128	-1535.30627	-804.69220	1785.69031	-1569.80176	-582.09955	1726.16833	-1462.91565	-644.45160	1768.90979	-1379.15112	-649.27234	1746.51257	-1568.03491	
2583	10.758	-812.25592	1809.40576	-1458.45911	-747.88062	1805.19531	-1460.61389	-693.81207	1795.80908	-1470.44556	-772.75708	1801.03003	-1436.58423	-752.82617	1797.29675	-1413.66040	-777.87622	1777.26282	-1383.50793	-780.26172	1772.54163	-1356.62341	-781.57477	1796.81274	-1484.51660	-772.79181	1798.71265	-1507.16455	-805.83032	1780.59802	-1527.56592	-822.64154	1766.34033	-1552.69385	-592.42847	1724.57886	-1463.73206	-653.24213	1765.74841	-1379.29517	-658.39124	1746.45068	-1567.34424	
2584	10.762	-822.46490	1806.46582	-1457.04736	-757.74133	1803.85706	-1459.10400	-703.90765	1795.42200	-1469.44312	-783.16455	1798.49988	-1435.01550	-764.48730	1790.83215	-1411.80945	-794.28351	1767.55762	-1388.72449	-801.25824	1756.12610	-1365.71997	-791.84821	1794.71741	-1482.67126	-785.37067	1792.15076	-1505.46509	-819.63440	1770.14648	-1517.96863	-837.66211	1751.22656	-1533.25635	-602.84155	1723.08020	-1465.29102	-661.52631	1762.49548	-1379.79224	-667.88599	1747.14343	-1567.00696	
2585	10.767	-832.82550	1803.28955	-1455.51318	-767.88385	1802.60229	-1457.73315	-714.23999	1794.59717	-1468.42908	-793.87280	1796.14832	-1433.63269	-775.32037	1785.38379	-1410.85327	-809.23169	1761.38721	-1394.64282	-820.07581	1744.54333	-1377.57666	-802.33838	1792.67554	-1481.00806	-796.76965	1786.65100	-1503.42554	-831.78375	1762.85449	-1508.08105	-850.06549	1741.04956	-1514.08240	-613.26910	1721.74133	-1467.46033	-669.61005	1758.90723	-1380.54578	-677.94836	1748.08691	-1566.94336	
2586	10.771	-843.34607	1799.88635	-1453.92285	-778.44781	1801.25159	-1456.49585	-724.83441	1793.29749	-1467.40625	-804.86182	1793.87891	-1432.38989	-785.18994	1781.10535	-1410.38501	-822.47833	1758.95215	-1399.66577	-836.30389	1738.66028	-1389.49976	-813.09760	1790.66309	-1479.51038	-806.89575	1782.47815	-1501.61267	-842.56415	1759.19092	-1499.60645	-860.63428	1735.83716	-1497.73816	-623.71875	1720.55505	-1469.98267	-677.81909	1754.81628	-1381.45007	-688.71185	1748.72131	-1566.99231	
2587	10.775	-854.04205	1796.27136	-1452.31458	-789.46979	1799.62744	-1455.34778	-735.69885	1791.57129	-1466.38525	-815.95789	1791.66443	-1431.15747	-794.14288	1778.08337	-1410.03857	-834.00696	1759.80591	-1402.57288	-849.99554	1738.06079	-1398.75037	-824.08618	1788.64575	-1478.09680	-815.91406	1779.78333	-1500.38464	-852.41895	1758.92505	-1493.80432	-870.29138	1734.64160	-1486.22729	-634.31647	1719.35791	-1472.52136	-686.37085	1750.24915	-1382.41968	-700.19641	1748.59851	-1566.97595	
2588	10.779	-864.92682	1792.47656	-1450.69690	-800.88037	1797.62073	-1454.22705	-746.81470	1789.54553	-1465.35193	-827.05389	1789.42065	-1429.86426	-802.38257	1776.37964	-1409.63171	-843.98761	1762.96179	-1402.95923	-861.42072	1741.12634	-1403.48450	-835.16418	1786.67334	-1476.76428	-824.10132	1778.61047	-1499.73511	-861.71649	1761.23621	-1491.08435	-880.06262	1734.91162	-1480.31055	-645.23907	1717.85828	-1474.73767	-695.35193	1745.42810	-1383.38525	-712.27301	1747.51160	-1566.75403	
2589	10.783	-875.99432	1788.55249	-1449.08704	-812.55603	1795.19470	-1453.09814	-758.13409	1787.33008	-1464.28455	-838.16724	1786.98560	-1428.55151	-810.26147	1775.96216	-1409.23755	-852.70575	1767.31677	-1401.19995	-870.80072	1745.70593	-1403.35034	-846.25568	1784.75684	-1475.48633	-831.74500	1778.86584	-1499.32056	-870.66809	1765.16064	-1491.06140	-890.50549	1734.67737	-1479.21106	-656.60760	1715.76099	-1476.37061	-704.76630	1740.68250	-1384.24597	-724.68134	1745.56677	-1566.26660	
2590	10.788	-887.20239	1784.56274	-1447.51514	-824.37720	1792.37231	-1451.97241	-769.59302	1784.95679	-1463.17224	-849.30591	1784.22314	-1427.26001	-818.21625	1776.62622	-1409.13098	-860.50897	1772.07666	-1398.09131	-878.18024	1750.03931	-1399.34277	-857.58759	1782.51636	-1474.07471	-839.13165	1780.29688	-1498.57764	-879.34637	1769.98950	-1492.87610	-899.53583	1737.38940	-1482.36157	-668.42450	1712.91895	-1477.27173	-714.60571	1736.33093	-1384.83252	-737.11078	1743.14172	-1565.54211	
2591	10.792	-898.47736	1780.56763	-1445.99670	-836.26550	1789.23584	-1450.87817	-781.12299	1782.39563	-1462.02075	-860.49255	1781.04285	-1425.95789	-826.62805	1777.99988	-1409.65222	-867.76202	1776.84387	-1394.53162	-883.47662	1753.45959	-1393.05078	-869.10944	1780.20593	-1472.77454	-846.52496	1782.51794	-1496.90283	-887.68292	1775.35266	-1495.47888	-906.30725	1741.08594	-1489.41699	-680.57007	1709.39783	-1477.41199	-724.90479	1732.58496	-1384.92651	-749.30817	1740.71899	-1564.66992	
2592	10.796	-909.75494	1776.59180	-1444.51221	-848.16284	1785.92456	-1449.83826	-792.67194	1779.60754	-1460.85339	-871.85114	1777.40015	-1424.59729	-835.70612	1779.63281	-1411.05859	-874.81714	1781.42151	-1391.38501	-886.59930	1756.44897	-1386.01526	-880.63379	1778.00916	-1471.71912	-854.15619	1785.04895	-1493.86377	-895.52643	1781.03284	-1497.80115	-911.77844	1745.18115	-1497.18152	-692.84369	1705.43372	-1476.87097	-735.75043	1729.51563	-1384.33435	-761.16821	1738.66223	-1563.75159	
2593	10.800	-920.99707	1772.63123	-1443.03479	-860.01215	1782.57629	-1448.85596	-804.20728	1776.56848	-1459.69275	-883.36731	1773.94263	-1423.54651	-845.50983	1781.09143	-1413.40149	-882.03363	1785.60791	-1389.35571	-887.69092	1760.00281	-1379.61572	-892.05896	1775.42493	-1470.18213	-862.23468	1787.34753	-1489.35266	-902.82678	1786.73230	-1498.92200	-915.64331	1750.20557	-1505.16028	-704.99933	1701.35400	-1475.75867	-747.22699	1727.07898	-1382.97656	-772.75208	1737.08398	-1562.87354	
2594	10.804	-932.20416	1768.67444	-1441.58655	-871.81165	1779.23755	-1447.91089	-815.70001	1773.27100	-1458.54041	-894.86023	1770.81262	-1422.90332	-856.04547	1781.97046	-1416.48010	-889.76984	1789.12769	-1388.79602	-887.47546	1764.92749	-1375.07617	-903.14508	1772.48181	-1468.09070	-870.96063	1788.85107	-1483.62463	-909.82507	1791.98730	-1498.25574	-917.68488	1756.89502	-1512.79651	-716.81842	1697.44409	-1474.17041	-759.31763	1725.17749	-1380.92749	-784.21484	1735.87817	-1562.09045	
2595	10.808	-943.40802	1764.74646	-1440.22034	-883.62177	1775.85681	-1446.95203	-827.12170	1769.72485	-1457.37720	-906.29706	1767.84753	-1422.50208	-867.26465	1781.93445	-1419.89917	-898.21234	1791.78735	-1389.56677	-887.29523	1771.51721	-1373.15991	-913.98633	1769.23840	-1465.65686	-880.49097	1789.08154	-1477.20508	-916.95770	1796.31946	-1495.75171	-918.27258	1765.84595	-1518.78625	-728.19366	1693.84216	-1472.19397	-771.83807	1723.72559	-1378.39893	-795.67987	1734.87378	-1561.40930	
